<?xml version="1.0" standalone="no"?><!-- Generator: Gravit.io --><svg xmlns="http://www.w3.org/2000/svg" xmlns:xlink="http://www.w3.org/1999/xlink" style="isolation:isolate" viewBox="-6.457 0 1463.032 3046.727" width="1463.032" height="3046.727"><g style="isolation:isolate" id="Wrapped"><linearGradient id="_lgradient_3" x1="96.10820172521689%" y1="117.92307947064926%" x2="96.10820172521687%" y2="-4.298455341185647%"><stop offset="0%" stop-opacity="0.83" style="stop-color:rgb(36,59,85)"/><stop offset="100%" stop-opacity="1" style="stop-color:rgb(20,30,48)"/></linearGradient><path d=" M 0 5.64 L 0 3186.727 L 0 3071.748 L 0 3105.422 L 0 5.64 Z " fill="url(#_lgradient_3)"/><path d=" M 0 3073.671 L -5.385 3073.671 L -5.385 2922.932 L 0 2921.999 L 0 3073.671 Z " fill="rgb(49,60,83)"/><path d=" M 0 3077.124 L 1437.581 3077.124 L 1437.581 2980.394 L 1360.366 2974.559 L 1260.629 2978.06 L 1233.282 2990.897 L 1209.152 3007.235 L 1148.023 3022.406 L 1086.894 3015.404 L 1048.286 2997.899 L 995.2 2999.066 L 963.027 2995.565 L 934.071 2988.563 L 884.203 3004.901 L 829.509 2995.565 L 794.118 2994.398 L 728.163 2990.897 L 649.339 2997.899 L 596.253 3006.068 L 567.297 2997.899 L 523.863 2995.565 L 436.996 2999.066 L 297.043 3002.567 L 253.609 3000.233 L 192.48 3000.233 L 120.09 2980.394 L 71.83 2976.893 L 0 2984.492 L 0 3077.124 Z " fill="rgb(49,60,83)"/><path d=" M -4.843 3077.839 L 1456.575 3082.293 L 1455.224 2919.984 L 1381.816 2935.668 L 1363.729 2949.005 L 1326.35 2950.574 L 1285.353 2950.574 L 1246.768 2962.343 L 1192.507 2986.664 L 1146.687 2988.233 L 1093.632 2993.725 L 1021.285 3015.693 L 987.522 3008.632 L 951.349 3008.632 L 927.233 3008.632 L 887.442 3010.985 L 815.094 3018.046 L 735.512 3008.632 L 702.955 3002.355 L 635.431 3002.355 L 582.376 3013.339 L 519.675 3006.278 L 465.414 3004.709 L 438.887 3017.262 L 373.774 3017.262 L 336.395 3010.985 L 271.282 3010.985 L 233.902 3000.001 L 180.848 2993.725 L 160.349 2995.294 L 137.439 2989.802 L 67.503 2976.465 L 42.182 2954.497 L 7.214 2946.651 L -4.843 2942.075 L -4.843 3077.839 L -4.843 3077.839 Z " fill="rgb(42,52,68)"/><path d=" M -6.457 2979.194 L 62.122 2999.863 L 119.27 3013.643 L 199.278 3013.643 L 267.857 3020.533 L 325.006 3031.459 L 416.443 3027.423 L 462.162 3027.423 L 679.327 3020.533 L 770.765 3020.533 L 885.063 3013.643 L 919.352 3013.643 L 942.211 3020.533 L 987.93 3027.423 L 1079.368 3020.533 L 1159.376 3006.753 L 1262.244 2992.973 L 1342.252 2992.973 L 1399.401 2986.084 L 1456.549 2979.194 L 1456.549 3082.542 L 583.77 3082.542 L -6.457 3082.542 L -6.457 2979.194 Z " fill="rgb(35,45,55)"/></g></svg>