<?xml version="1.0" standalone="no"?><!-- Generator: Gravit.io --><svg xmlns="http://www.w3.org/2000/svg" xmlns:xlink="http://www.w3.org/1999/xlink" style="isolation:isolate" viewBox="0 0 1440 3072" width="1640" height="2922"><g style="isolation:isolate" id="Wrapped"/><g style="isolation:isolate" id="Layer 11"><path d=" M 657 2865.916 C 657 2812.637 700.256 2769.382 753.534 2769.382 C 806.813 2769.382 850.069 2812.637 850.069 2865.916 C 850.069 2919.195 806.813 2962.451 753.534 2962.451 C 700.256 2962.451 657 2919.195 657 2865.916 Z " fill="rgb(166,166,166)"/><clipPath id="_clipPath_1iadnEGqZmjWhvTAHiYuijQBeEfwnLKH"><path d=" M 657 2865.916 C 657 2812.637 700.256 2769.382 753.534 2769.382 C 806.813 2769.382 850.069 2812.637 850.069 2865.916 C 850.069 2919.195 806.813 2962.451 753.534 2962.451 C 700.256 2962.451 657 2919.195 657 2865.916 Z " fill="rgb(166,166,166)"/></clipPath><g clip-path="url(#_clipPath_1iadnEGqZmjWhvTAHiYuijQBeEfwnLKH)"><path d=" M 657 2861.218 C 657 2810.532 698.151 2769.382 748.837 2769.382 C 799.523 2769.382 840.673 2810.532 840.673 2861.218 C 840.673 2911.904 799.523 2953.055 748.837 2953.055 C 698.151 2953.055 657 2911.904 657 2861.218 Z " fill="rgb(235,235,235)"/></g><path d=" M 712.767 2804.684 C 712.767 2801.638 715.24 2799.165 718.286 2799.165 C 721.331 2799.165 723.804 2801.638 723.804 2804.684 C 723.804 2807.729 721.331 2810.202 718.286 2810.202 C 715.24 2810.202 712.767 2807.729 712.767 2804.684 Z " fill="rgb(177,177,177)"/><path d=" M 727.466 2895.451 C 727.466 2892.691 729.707 2890.451 732.466 2890.451 C 735.226 2890.451 737.466 2892.691 737.466 2895.451 C 737.466 2898.21 735.226 2900.451 732.466 2900.451 C 729.707 2900.451 727.466 2898.21 727.466 2895.451 Z " fill="rgb(166,166,166)"/><path d=" M 774.194 2912.441 C 774.194 2907.479 778.222 2903.451 783.184 2903.451 C 788.146 2903.451 792.175 2907.479 792.175 2912.441 C 792.175 2917.403 788.146 2921.432 783.184 2921.432 C 778.222 2921.432 774.194 2917.403 774.194 2912.441 Z " fill="rgb(166,166,166)"/><path d=" M 678.089 2831.648 C 678.089 2822.774 685.294 2815.569 694.168 2815.569 C 703.042 2815.569 710.246 2822.774 710.246 2831.648 C 710.246 2840.522 703.042 2847.726 694.168 2847.726 C 685.294 2847.726 678.089 2840.522 678.089 2831.648 Z " fill="rgb(166,166,166)"/></g></svg>