<?xml version="1.0" standalone="no"?><!-- Generator: Gravit.io --><svg xmlns="http://www.w3.org/2000/svg" xmlns:xlink="http://www.w3.org/1999/xlink" style="isolation:isolate" viewBox="0 0 1440 3472" width="1440" height="3482" preserveAspectRatio="xMidYMid meet"><g style="isolation:isolate" id="Wrapped"><path d="M 1149.481 2974.445 L 1128.565 2974.445 L 1136.874 2963.34 L 1126.32 2963.34 L 1136.831 2948.234 L 1126.32 2948.234 L 1159.481 2886.304 L 1192.642 2948.234 L 1182.13 2948.234 L 1192.642 2963.34 L 1180.11 2963.34 L 1188.419 2974.445 L 1169.481 2974.445 L 1169.481 3006.945 L 1149.481 3006.945 L 1149.481 2974.445 Z" style="stroke:none;fill:#232D37;stroke-miterlimit:10;fill-rule:evenodd;"/><path d="M 1085.507 3001.528 L 1064.591 3001.528 L 1072.9 2990.423 L 1062.346 2990.423 L 1072.858 2975.317 L 1062.346 2975.317 L 1095.507 2913.388 L 1128.668 2975.317 L 1118.157 2975.317 L 1128.668 2990.423 L 1116.137 2990.423 L 1124.446 3001.528 L 1105.507 3001.528 L 1105.507 3034.028 L 1085.507 3034.028 L 1085.507 3001.528 Z" style="stroke:none;fill:#232D37;stroke-miterlimit:10;fill-rule:evenodd;"/><path d="M 120.347 2984.613 L 99.431 2984.613 L 107.74 2973.507 L 97.186 2973.507 L 107.698 2958.402 L 97.186 2958.402 L 130.347 2896.472 L 163.508 2958.402 L 152.997 2958.402 L 163.508 2973.507 L 150.977 2973.507 L 159.286 2984.613 L 140.347 2984.613 L 140.347 3017.113 L 120.347 3017.113 L 120.347 2984.613 Z" style="stroke:none;fill:#232D37;stroke-miterlimit:10;fill-rule:evenodd;"/><path d="M 54.027 2976.451 L 33.111 2976.451 L 41.42 2965.345 L 30.866 2965.345 L 41.378 2950.24 L 30.866 2950.24 L 64.027 2888.31 L 97.188 2950.24 L 86.677 2950.24 L 97.188 2965.345 L 84.657 2965.345 L 92.966 2976.451 L 74.027 2976.451 L 74.027 3008.951 L 54.027 3008.951 L 54.027 2976.451 Z" style="stroke:none;fill:#232D37;stroke-miterlimit:10;fill-rule:evenodd;"/></g></svg>