<?xml version="1.0" standalone="no"?><!-- Generator: Gravit.io --><svg xmlns="http://www.w3.org/2000/svg" xmlns:xlink="http://www.w3.org/1999/xlink" style="isolation:isolate" viewBox="0 -14.766 1440 3086.766" width="1440" height="3086.766"><g style="isolation:isolate" id="Wrapped"/><path d=" M 575.06 3018.82 L 570.516 3016.054 L 569.444 3011.629 L 570.838 3004.438 L 578.379 2998.354 L 586.122 2991.163 L 589.48 2990.057 L 593.905 2988.397 L 599.19 2990.057 L 603.823 2990.057 L 609.907 2990.057 L 615.438 2990.057 L 618.757 2993.929 L 618.757 3002.226 L 617.098 3009.97 L 617.098 3016.054 L 617.098 3018.82 L 627.35 3018.82 L 632.132 3018.82 L 625.395 3013.841 L 625.395 3009.97 L 626.773 3002.226 L 627.068 2998.354 L 629.357 2993.929 L 629.638 2990.057 L 632.843 2986.738 L 638.117 2980.101 L 639.776 2976.229 L 648.073 2960.741 L 651.945 2944.7 L 657 2935.297 L 657 2934.191 L 655.817 2934.191 L 654.711 2934.744 L 653.604 2935.297 L 651.945 2935.297 L 652.498 2933.084 L 652.498 2929.766 L 650.839 2927 L 650.285 2927 L 646.967 2929.766 L 646.414 2930.872 L 640.882 2933.638 L 638.67 2933.638 L 632.488 2939.722 L 628.506 2940.828 L 627.27 2941.381 L 629.613 2944.7 L 625.395 2950.785 L 618.204 2956.316 L 615.438 2956.316 L 605.482 2959.635 L 597.185 2960.741 L 581.697 2961.294 L 570.329 2964.613 L 565.103 2969.591 L 560.125 2976.782 L 552.935 2983.419 L 546.297 2985.632 L 540.213 2990.61 L 538 2995.588 L 538.265 2996.694 L 539.659 2997.801 L 541.872 2997.801 L 546.297 2995.588 L 550.169 2994.482 L 553.488 2992.823 L 558.466 2991.163 L 563.444 2988.397 L 566.21 2987.291 L 568.975 2988.397 L 569.48 2990.057 L 569.945 2992.269 L 568.975 2995.035 L 563.997 2999.46 L 558.466 3003.332 L 556.253 3004.991 L 555.7 3008.31 L 555.147 3014.948 L 556.253 3019.926 L 557.36 3021.032 L 562.338 3021.032 L 563.444 3020.479 L 561.785 3018.267 L 560.678 3017.713 L 560.125 3014.948 L 560.678 3011.076 L 561.785 3009.416 L 562.891 3009.97 L 563.444 3013.288 L 563.997 3017.16 L 564.55 3019.373 L 566.21 3019.926 L 570.329 3020.479 L 574.507 3020.479 L 575.06 3018.82 Z " fill="rgb(35,45,55)"/></svg>